<svg width="22" height="17" viewBox="0 0 22 17" fill="none" xmlns="http://www.w3.org/2000/svg">
<path d="M10.5902 8.79999C9.14896 8.79999 7.91516 8.40832 6.88881 7.62499C5.86246 6.84165 5.34928 5.89999 5.34928 4.79999C5.34928 3.69999 5.86246 2.75832 6.88881 1.97499C7.91516 1.19165 9.14896 0.799988 10.5902 0.799988C12.0315 0.799988 13.2653 1.19165 14.2916 1.97499C15.318 2.75832 15.8312 3.69999 15.8312 4.79999C15.8312 5.89999 15.318 6.84165 14.2916 7.62499C13.2653 8.40832 12.0315 8.79999 10.5902 8.79999ZM0.108337 16.8V14C0.108337 13.4333 0.299413 12.9125 0.681565 12.4375C1.06372 11.9625 1.57143 11.6 2.20471 11.35C3.55862 10.8333 4.93437 10.4458 6.33196 10.1875C7.72954 9.92915 9.14896 9.79999 10.5902 9.79999C12.0315 9.79999 13.4509 9.92915 14.8485 10.1875C16.2461 10.4458 17.6218 10.8333 18.9757 11.35C19.609 11.6 20.1167 11.9625 20.4989 12.4375C20.881 12.9125 21.0721 13.4333 21.0721 14V16.8H0.108337ZM2.72881 14.8H18.4516V14C18.4516 13.8167 18.3916 13.65 18.2715 13.5C18.1514 13.35 17.9931 13.2333 17.7965 13.15C16.6173 12.7 15.4272 12.3625 14.2261 12.1375C13.0251 11.9125 11.8131 11.8 10.5902 11.8C9.36734 11.8 8.15537 11.9125 6.95432 12.1375C5.75327 12.3625 4.56314 12.7 3.38393 13.15C3.18739 13.2333 3.02907 13.35 2.90897 13.5C2.78886 13.65 2.72881 13.8167 2.72881 14V14.8ZM10.5902 6.79999C11.3109 6.79999 11.9278 6.60415 12.4409 6.21249C12.9541 5.82082 13.2107 5.34999 13.2107 4.79999C13.2107 4.24999 12.9541 3.77915 12.4409 3.38749C11.9278 2.99582 11.3109 2.79999 10.5902 2.79999C9.86959 2.79999 9.25269 2.99582 8.73951 3.38749C8.22634 3.77915 7.96975 4.24999 7.96975 4.79999C7.96975 5.34999 8.22634 5.82082 8.73951 6.21249C9.25269 6.60415 9.86959 6.79999 10.5902 6.79999Z" fill="black"/>
</svg>
